<svg width="128" height="128" viewBox="0 0 128 128" fill="none" xmlns="http://www.w3.org/2000/svg">
<path d="M128 76.8V51.2C112.298 51.2 97.6962 55.9124 85.5322 64C77.0024 69.6713 69.6713 77.0024 64 85.5322C58.3287 77.0024 50.9976 69.6713 42.4678 64L25.6 83.6496C40.9037 92.5024 51.2 109.049 51.2 128H76.8C76.8 99.723 99.723 76.8 128 76.8Z" fill="#E2E8F0"/>
<path d="M76.8 0H51.2C51.2 28.277 28.277 51.2 0 51.2V76.8C15.7022 76.8 30.3039 72.0876 42.4678 64C50.9976 58.3287 58.3287 50.9976 64 42.4678C69.6713 50.9976 77.0024 58.3287 85.5322 64L102.4 44.3503C87.0963 35.4976 76.8 18.9512 76.8 0Z" fill="#E2E8F0"/>
</svg>